# xmcd
#
# Track frame offsets:
#	150
#	15811
#	34008
#	50780
#	64206
#	76688
#	92124
#	107950
#	124046
#	139476
#
# Disc length: 2074 seconds
#
# Revision: 1
# Processed by: cddbd v1.5.1PL2 Copyright (c) Steve Scherf et al.
# Submitted via: audiograbber 1.83.01
#
DISCID=8108180a
DTITLE=Juice Newton - Old Flame
DYEAR=1985
DGENRE=Country
TTITLE0=Cheap Love
TTITLE1=You Make Me Want To Make You Mine
TTITLE2=Hurt
TTITLE3=Old Flame
TTITLE4=Stuck In The Middle With You
TTITLE5=Feel A Whole Lot Better
TTITLE6=What Can I Do With My Heart
TTITLE7=With You
TTITLE8=One Touch
TTITLE9=Let Your Woman Take Care Of You
EXTD=
EXTT0=
EXTT1=
EXTT2=
EXTT3=
EXTT4=
EXTT5=
EXTT6=
EXTT7=
EXTT8=
EXTT9=
PLAYORDER=
